<svg xmlns="http://www.w3.org/2000/svg" version="1.1" xmlns:xlink="http://www.w3.org/1999/xlink" xmlns:svgjs="http://svgjs.dev/svgjs" width="2880" height="1440" preserveAspectRatio="none" viewBox="0 0 2880 1440">
    <g mask="url(&quot;#SvgjsMask1000&quot;)" fill="none">
        <rect width="2880" height="1440" x="0" y="0" fill="rgba(54, 51, 51, 1)"></rect>
        <path d="M270 0C321.2 8.32 315.86 58.5 360 58.5C400.52 58.5 392.54 7.6 439.32 0C572.54 -21.65 579.66 0 720 0C900 0 900 0 1080 0C1260 0 1260 0 1440 0C1603.13 0 1609.38 -14.94 1766.25 0C1789.38 2.2 1779.34 22.15 1800 34.29C1976.22 137.86 2020.66 242.13 2160 231.43C2243.86 224.99 2160.99 54.91 2246.4 0C2340.99 -60.81 2383.2 0 2520 0C2643.61 0 2701.63 -72.25 2767.23 0C2865.05 107.75 2797.54 184.55 2846.84 360C2853.92 385.21 2877.64 375.65 2880 401.31C2894.22 555.65 2880 560.65 2880 720C2880 900 2880 900 2880 1080C2880 1260 2970 1350 2880 1440C2790 1530 2700 1440 2520 1440C2340 1440 2340 1440 2160 1440C1980 1440 1980 1440 1800 1440C1620 1440 1620 1440 1440 1440C1260 1440 1260 1440 1080 1440C900 1440 900 1440 720 1440C554.21 1440 466.87 1526.3 388.42 1440C303.24 1346.3 404.88 1255.93 392.73 1080C390.67 1050.21 376.47 1028.57 360 1028.57C343.44 1028.57 348.84 1059.02 326.67 1080C168.84 1229.33 98.23 1369.18 0 1369.18C-65.11 1369.18 0 1224.59 0 1080C0 900 0 900 0 720C0 540 0 540 0 360C0 180 -77.14 102.86 0 0C57.86 -77.14 141.2 -20.93 270 0" stroke="rgba(39, 33, 33, 1)" stroke-width="2"></path>
        <path d="M720 312.45C692.47 316.09 685.95 336.66 685.95 360C685.95 381.79 694.24 396.83 720 402.71C891.26 441.83 906.63 463.9 1080 450C1173.03 442.54 1252.8 396.87 1252.8 360C1252.8 325.85 1168.95 315.89 1080 307.95C902.55 292.11 889.49 290.06 720 312.45" stroke="rgba(39, 33, 33, 1)" stroke-width="2"></path>
        <path d="M1440 547.2C1365.58 549.22 1411.23 645.63 1350 720C1231.23 864.27 1210.4 848.14 1080 984.49C1038.25 1028.14 1005.71 1033.46 1005.71 1080C1005.71 1123 1028.54 1152.91 1080 1163.57C1245.69 1197.91 1276.38 1201.65 1440 1170C1492.38 1159.87 1475.52 1124.61 1512 1080C1655.52 904.48 1622.39 798.22 1800 729.73C1946.39 673.28 1992.84 833.51 2160 830.12C2232.84 828.64 2280 787.09 2280 720C2280 602.03 2255 462.41 2160 460C2015 456.31 1989.28 684.88 1800 707.8C1629.28 728.48 1590.58 543.12 1440 547.2" stroke="rgba(39, 33, 33, 1)" stroke-width="2"></path>
        <path d="M96.92 0C234.44 65.32 236.16 75.61 360 171C469.86 255.61 469.44 258.73 564.32 360C649.44 450.86 615.98 499.27 720 555.25C873.82 638.02 911.87 574.9 1080 637.5C1133.12 657.28 1162.5 678.96 1162.5 720C1162.5 760.62 1116.88 756.51 1080 800.82C967.06 936.51 862.86 943.97 862.86 1080C862.86 1205.71 942.92 1273.22 1080 1324.29C1231.49 1380.72 1289.06 1364.31 1440 1295C1555.06 1242.17 1525.26 1186.9 1612 1080C1705.26 965.07 1678.19 883.36 1800 851.35C1952.19 811.36 2000.28 971.24 2160 936C2297.97 905.56 2374.7 850.11 2395.38 720C2420.47 562.11 2258.87 542.3 2251.53 360C2244.38 182.3 2270.96 127.98 2366.4 0C2405.19 -52.02 2443.2 0 2520 0C2589.4 0 2630.18 -49.43 2658.8 0C2734.39 130.57 2661.81 194.73 2728.42 360C2772.41 469.15 2835.59 443.39 2880 548.85C2911.38 623.39 2880 634.42 2880 720C2880 900 2880 900 2880 1080C2880 1238.4 2893.97 1243.1 2880 1396.8C2877.61 1423.1 2872.84 1436.93 2847.27 1440C2692.84 1458.53 2683.64 1440 2520 1440C2340 1440 2340 1440 2160 1440C1990.28 1440 1988.09 1446.84 1820.57 1440C1808.09 1439.49 1810.49 1425.31 1800 1425.31C1788.59 1425.31 1790.35 1439.45 1776.77 1440C1610.35 1446.79 1608.39 1440 1440 1440C1260 1440 1260 1440 1080 1440C900 1440 900 1440 720 1440C613.42 1440 537.09 1506.55 506.84 1440C455.27 1326.55 592.95 1246.6 556.36 1080C519.53 912.32 458.82 771.43 360 771.43C260.64 771.43 273.84 937.63 160 1080C93.84 1162.73 48.11 1221.64 0 1221.64C-31.89 1221.64 0 1150.82 0 1080C0 900 0 900 0 720C0 540 0 540 0 360C0 180 -38.18 141.82 0 0C10.28 -38.18 54.44 -20.18 96.92 0" stroke="rgba(39, 33, 33, 1)" stroke-width="2"></path>
        <path d="M720 142.64C635.86 108.25 591.86 42.75 591.86 0C591.86 -28.57 655.93 0 720 0C900 0 900 0 1080 0C1260 0 1260 0 1440 0C1532.82 0 1548.67 -37.87 1625.63 0C1728.67 50.7 1705.96 96.43 1800 177.14C1915.7 276.43 2045.11 266.63 2045.11 360C2045.11 455.68 1924.11 555.25 1800 555.25C1670.65 555.25 1664.9 462.52 1538.18 360C1484.9 316.9 1502.53 285.9 1440 264C1273.44 205.66 1260.31 229.91 1080 199.52C900.31 169.23 879.93 208.01 720 142.64" stroke="rgba(39, 33, 33, 1)" stroke-width="2"></path>
        <path d="M156 360C156 305.16 265.51 283.5 360 283.5C408.86 283.5 442.7 314.21 442.7 360C442.7 435.17 419.23 525.41 360 525.41C275.88 525.41 156 426.11 156 360" stroke="rgba(39, 33, 33, 1)" stroke-width="2"></path>
        <path d="M1080 91.08C925.46 76.15 777.6 23.26 777.6 0C777.6 -22.28 928.8 0 1080 0C1260 0 1260 0 1440 0C1462.5 0 1485 -11.68 1485 0C1485 20.32 1476.07 55.89 1440 64C1273.57 101.43 1256.66 108.15 1080 91.08" stroke="rgba(39, 33, 33, 1)" stroke-width="2"></path>
        <path d="M1742.73 360C1742.73 339.55 1771.68 320 1800 320C1827.12 320 1853.62 339.58 1853.62 360C1853.62 380.93 1827.15 402.71 1800 402.71C1771.7 402.71 1742.73 380.91 1742.73 360" stroke="rgba(39, 33, 33, 1)" stroke-width="2"></path>
        <path d="M2404.07 360C2398.03 181.49 2433.27 164.99 2486.4 0C2491.23 -15.01 2503.2 0 2520 0C2535.18 0 2546.9 -13.83 2550.36 0C2591.9 166.17 2534.47 200.43 2610 360C2699.29 548.62 2752.01 525.73 2880 696.39C2887.01 705.73 2880 708.19 2880 720C2880 822.86 2941.98 863.73 2880 925.71C2761.98 1043.73 2616.18 1133.59 2520 1080C2431.57 1030.73 2539.15 896.24 2510.77 720C2481.18 536.24 2410.21 541.49 2404.07 360" stroke="rgba(39, 33, 33, 1)" stroke-width="2"></path>
        <path d="M687.27 720C687.27 703.6 703.35 707.8 720 707.8C742.22 707.8 765 698.81 765 720C765 884.91 739.47 1080 720 1080C700.6 1080 687.27 889.7 687.27 720" stroke="rgba(39, 33, 33, 1)" stroke-width="2"></path>
        <path d="M1712 1080C1712 1022.3 1738.55 978.2 1800 972.97C1962.55 959.14 1978.88 1014.96 2160 1041.88C2338.88 1068.47 2340 1060.94 2520 1080C2520 1080 2520 1080 2520 1080C2547.27 1260 2574.55 1283.45 2574.55 1440C2574.55 1463.45 2547.27 1440 2520 1440C2340 1440 2340 1440 2160 1440C2118.85 1440 2112.68 1459.27 2077.71 1440C1932.68 1360.08 1918.8 1358.57 1800 1241.63C1735.94 1178.57 1712 1156.63 1712 1080" stroke="rgba(39, 33, 33, 1)" stroke-width="2"></path>
        <path d="M625.26 1440C625.26 1296.52 637.99 1080 720 1080C818.7 1080 986.67 1327.16 986.67 1440C986.67 1507.16 853.34 1440 720 1440C672.63 1440 625.26 1476.52 625.26 1440" stroke="rgba(39, 33, 33, 1)" stroke-width="2"></path>
        <path d="M1309.09 1440C1309.09 1434.97 1375.83 1420 1440 1420C1464.51 1420 1486.45 1434.79 1486.45 1440C1486.45 1444.79 1463.22 1440 1440 1440C1374.55 1440 1309.09 1444.97 1309.09 1440" stroke="rgba(39, 33, 33, 1)" stroke-width="2"></path>
    </g>
    <defs>
        <mask id="SvgjsMask1000">
            <rect width="2880" height="1440" fill="#ffffff"></rect>
        </mask>
    </defs>
</svg>